<svg width="204" height="48" viewBox="0 0 204 48" fill="none" xmlns="http://www.w3.org/2000/svg" role="img" aria-label="Perfil Primero">
  <rect x="2" y="2" width="44" height="44" rx="14" fill="url(#markGradient)" stroke="#BDEBFF" stroke-width="2"/>
  <path d="M15 31V15H25.1C28.7 15 31.2 17.4 31.2 20.8C31.2 24.3 28.7 26.7 25.1 26.7H19.4V31H15ZM19.4 23.1H24.5C25.9 23.1 26.8 22.2 26.8 20.8C26.8 19.5 25.9 18.6 24.5 18.6H19.4V23.1Z" fill="#07324A"/>
  <path d="M33 31V20.1L29.9 21.7V17.8L34.5 15H37.4V31H33Z" fill="#07324A"/>
  <text x="58" y="22" fill="#07324A" font-family="Inter, Segoe UI, Arial, sans-serif" font-size="17" font-weight="850" letter-spacing="0">Perfil</text>
  <text x="58" y="39" fill="#0F8FB2" font-family="Inter, Segoe UI, Arial, sans-serif" font-size="17" font-weight="850" letter-spacing="0">Primero</text>
  <path d="M116 13H187" stroke="#6FD0FF" stroke-width="5" stroke-linecap="round"/>
  <path d="M116 26H172" stroke="#BDEBFF" stroke-width="5" stroke-linecap="round"/>
  <defs>
    <linearGradient id="markGradient" x1="6" y1="5" x2="42" y2="44" gradientUnits="userSpaceOnUse">
      <stop stop-color="#F5FCFF"/>
      <stop offset="0.45" stop-color="#BDEBFF"/>
      <stop offset="1" stop-color="#7ED8FF"/>
    </linearGradient>
  </defs>
</svg>
